<svg width="1920" height="1080" viewBox="0 0 1920 1080" fill="none" xmlns="http://www.w3.org/2000/svg">
  <rect width="1920" height="1080" fill="#1A1A1B"/>
  <rect width="1920" height="1080" fill="url(#paint0_linear_1_1)" fill-opacity="0.65"/>
  <path d="M0 780C240 700 400 830 580 760C760 690 900 530 1110 540C1320 550 1560 760 1920 640V1080H0V780Z" fill="#0E0E0F"/>
  <path d="M0 880C230 800 400 920 640 860C880 800 1040 700 1300 720C1560 740 1720 860 1920 830V1080H0V880Z" fill="#111213"/>
  <rect x="140" y="140" width="420" height="3" fill="#C5A059" fill-opacity="0.85"/>
  <defs>
    <linearGradient id="paint0_linear_1_1" x1="280" y1="120" x2="1650" y2="980" gradientUnits="userSpaceOnUse">
      <stop stop-color="#2E2E32"/>
      <stop offset="0.45" stop-color="#1A1A1B"/>
      <stop offset="1" stop-color="#0F0F10"/>
    </linearGradient>
  </defs>
</svg>
